<?xml version="1.0" encoding="utf-8"?>
<!-- Generator: Adobe Illustrator 27.5.0, SVG Export Plug-In . SVG Version: 6.00 Build 0)  -->
<svg version="1.1" xmlns="http://www.w3.org/2000/svg" xmlns:xlink="http://www.w3.org/1999/xlink" x="0px" y="0px"
	 viewBox="0 0 69 69" style="enable-background:new 0 0 69 69;" xml:space="preserve">
<style type="text/css">
	.st0{display:none;}
	.st1{fill:#333333;stroke:#333333;stroke-width:2.1181;stroke-miterlimit:10;}
	.st2{fill:#FACB14;stroke:#333333;stroke-width:1.0395;stroke-miterlimit:10;}
</style>
<g id="圖層_1" class="st0">
	
		<image style="display:inline;overflow:visible;" width="69" height="69" xlink:href="../23tigerair_Okayama/images/menu_mobile22.png" >
	</image>
</g>
<g id="圖層_2">
	<g>
		<path class="st1" d="M57.1,26.6h-43c-2.4,0-4.4-2-4.4-4.4v-0.9c0-2.4,2-4.4,4.4-4.4h43c2.4,0,4.4,2,4.4,4.4v0.9
			C61.5,24.6,59.5,26.6,57.1,26.6z"/>
		<path class="st2" d="M57.4,25.3H13.9c-2.3,0-4.1-1.9-4.1-4.1v-0.3c0-2.3,1.9-4.1,4.1-4.1h43.5c2.3,0,4.1,1.9,4.1,4.1v0.3
			C61.5,23.5,59.6,25.3,57.4,25.3z"/>
	</g>
	<g>
		<path class="st1" d="M57.1,40.4h-43c-2.4,0-4.4-2-4.4-4.4v-0.9c0-2.4,2-4.4,4.4-4.4h43c2.4,0,4.4,2,4.4,4.4V36
			C61.5,38.4,59.5,40.4,57.1,40.4z"/>
		<path class="st2" d="M57.4,39.1H13.9c-2.3,0-4.1-1.9-4.1-4.1v-0.3c0-2.3,1.9-4.1,4.1-4.1h43.5c2.3,0,4.1,1.9,4.1,4.1V35
			C61.5,37.3,59.6,39.1,57.4,39.1z"/>
	</g>
	<g>
		<path class="st1" d="M57.1,54.1h-43c-2.4,0-4.4-2-4.4-4.4v-0.9c0-2.4,2-4.4,4.4-4.4h43c2.4,0,4.4,2,4.4,4.4v0.9
			C61.5,52.2,59.5,54.1,57.1,54.1z"/>
		<path class="st2" d="M57.4,52.9H13.9c-2.3,0-4.1-1.9-4.1-4.1v-0.3c0-2.3,1.9-4.1,4.1-4.1h43.5c2.3,0,4.1,1.9,4.1,4.1v0.3
			C61.5,51.1,59.6,52.9,57.4,52.9z"/>
	</g>
</g>
</svg>
